<?xml version="1.0" encoding="UTF-8"?>
<svg xmlns="http://www.w3.org/2000/svg" xmlns:xlink="http://www.w3.org/1999/xlink" width="20px" height="20px" viewBox="0 0 20 20" version="1.1">
<g id="surface1">
<path style=" stroke:none;fill-rule:nonzero;fill:rgb(0%,0%,0%);fill-opacity:1;" d="M 8.199219 0.320312 C 6.039062 0.921875 4.21875 2.421875 3.238281 4.398438 L 2.699219 5.5 L 2.640625 10.941406 L 2.578125 16.398438 L 3.140625 17.441406 C 5.101562 21.019531 10.21875 20.558594 11.460938 16.660156 C 11.640625 16.140625 11.800781 15.480469 11.839844 15.21875 C 11.878906 14.878906 12.121094 14.660156 12.738281 14.421875 C 15.578125 13.320312 17.398438 10.621094 17.398438 7.5 C 17.398438 5.738281 16.980469 4.480469 15.921875 3.039062 C 14.238281 0.738281 10.921875 -0.441406 8.199219 0.320312 Z M 12.539062 2.359375 C 16.640625 4.460938 16.820312 10.300781 12.839844 12.460938 L 11.839844 13 L 11.761719 10.5 C 11.679688 7.800781 11.539062 7.421875 10.339844 6.519531 C 9.601562 5.980469 8.039062 6 7.238281 6.578125 C 6.261719 7.261719 5.941406 8.21875 6.039062 10.078125 C 6.179688 12.578125 7.101562 13.980469 9.121094 14.660156 C 9.761719 14.878906 9.898438 15.039062 9.960938 15.519531 C 10.019531 16.261719 9.398438 17.28125 8.558594 17.820312 C 8.058594 18.121094 7.660156 18.199219 6.980469 18.140625 C 5.878906 18.039062 5.179688 17.578125 4.601562 16.539062 C 4.179688 15.800781 4.160156 15.601562 4.238281 10.941406 C 4.300781 6.339844 4.320312 6.058594 4.761719 5.160156 C 5.339844 4 6.921875 2.539062 8.058594 2.121094 C 9.238281 1.679688 11.441406 1.800781 12.539062 2.359375 Z M 9.800781 8.179688 C 10.019531 8.621094 10.078125 13.199219 9.859375 13.199219 C 9.5 13.199219 8.398438 12.378906 8.078125 11.898438 C 7.640625 11.238281 7.558594 8.621094 7.980469 8.140625 C 8.359375 7.660156 9.539062 7.699219 9.800781 8.179688 Z M 9.800781 8.179688 "/>
</g>
</svg>
