<?xml version="1.0" encoding="UTF-8"?>
<svg xmlns="http://www.w3.org/2000/svg" xmlns:xlink="http://www.w3.org/1999/xlink" width="100px" height="100px" viewBox="0 0 100 100" version="1.1">
<g id="surface1">
<path style=" stroke:none;fill-rule:nonzero;fill:rgb(0%,0%,0%);fill-opacity:1;" d="M 41 1.601562 C 30.199219 4.601562 21.101562 12.101562 16.199219 22 L 13.5 27.5 L 13.199219 54.699219 L 12.898438 82 L 15.699219 87.199219 C 25.5 105.101562 51.101562 102.800781 57.300781 83.300781 C 58.199219 80.699219 59 77.398438 59.199219 76.101562 C 59.398438 74.398438 60.601562 73.300781 63.699219 72.101562 C 77.898438 66.601562 87 53.101562 87 37.5 C 87 28.699219 84.898438 22.398438 79.601562 15.199219 C 71.199219 3.699219 54.601562 -2.199219 41 1.601562 Z M 62.699219 11.800781 C 83.199219 22.300781 84.101562 51.5 64.199219 62.300781 L 59.199219 65 L 58.800781 52.5 C 58.398438 39 57.699219 37.101562 51.699219 32.601562 C 48 29.898438 40.199219 30 36.199219 32.898438 C 31.300781 36.300781 29.699219 41.101562 30.199219 50.398438 C 30.898438 62.898438 35.5 69.898438 45.601562 73.300781 C 48.800781 74.398438 49.5 75.199219 49.800781 77.601562 C 50.101562 81.300781 47 86.398438 42.800781 89.101562 C 40.300781 90.601562 38.300781 91 34.898438 90.699219 C 29.398438 90.199219 25.898438 87.898438 23 82.699219 C 20.898438 79 20.800781 78 21.199219 54.699219 C 21.5 31.699219 21.601562 30.300781 23.800781 25.800781 C 26.699219 20 34.601562 12.699219 40.300781 10.601562 C 46.199219 8.398438 57.199219 9 62.699219 11.800781 Z M 49 40.898438 C 50.101562 43.101562 50.398438 66 49.300781 66 C 47.5 66 42 61.898438 40.398438 59.5 C 38.199219 56.199219 37.800781 43.101562 39.898438 40.699219 C 41.800781 38.300781 47.699219 38.5 49 40.898438 Z M 49 40.898438 "/>
</g>
</svg>
